<?xml version="1.0" encoding="UTF-8"?>
<svg width="65px" height="65px" viewBox="0 0 65 65" version="1.1" xmlns="http://www.w3.org/2000/svg" xmlns:xlink="http://www.w3.org/1999/xlink">
    <!-- Generator: Sketch 48.2 (47327) - http://www.bohemiancoding.com/sketch -->
    <title>Pike</title>
    <desc>Created with Sketch.</desc>
    <defs></defs>
    <g id="Page-1" stroke="none" stroke-width="1" fill="none" fill-rule="evenodd">
        <g id="Pike">
            <g id="Group" fill="#9D542C">
                <path d="M29.2616822,0 L32.7383178,0 C35.1384337,-4.40894151e-16 37.0841121,1.94567842 37.0841121,4.34579439 L37.0841121,5.21495327 C37.0841121,7.61506924 35.1384337,9.56074766 32.7383178,9.56074766 L29.2616822,9.56074766 C26.8615663,9.56074766 24.9158879,7.61506924 24.9158879,5.21495327 L24.9158879,4.34579439 C24.9158879,1.94567842 26.8615663,4.40894151e-16 29.2616822,0 Z M29.9859813,50.9906542 L32.0140187,50.9906542 C34.814154,50.9906542 37.0841121,53.2606124 37.0841121,56.0607477 L37.0841121,56.9299065 C37.0841121,59.7300418 34.814154,62 32.0140187,62 L29.9859813,62 C27.185846,62 24.9158879,59.7300418 24.9158879,56.9299065 L24.9158879,56.0607477 C24.9158879,53.2606124 27.185846,50.9906542 29.9859813,50.9906542 Z M18.9893132,42.0746419 L19.8949659,43.0124728 C21.8401033,45.0267216 21.7840775,48.2364383 19.7698288,50.1815757 L16.4009317,53.4348817 C14.386683,55.3800192 11.1769663,55.3239934 9.23182884,53.3097446 L8.32617611,52.3719137 C6.38103869,50.357665 6.4370645,47.1479483 8.45131326,45.2028109 L11.8202103,41.9495048 C13.8344591,40.0043674 17.0441758,40.0603932 18.9893132,42.0746419 Z M44.0459252,19.0493669 L42.4607764,17.4078972 C40.682365,15.5662984 40.7335886,12.6317002 42.5751875,10.8532889 L45.8703123,7.67122386 C47.7119112,5.8928125 50.6465093,5.9440361 52.4249206,7.78563497 L54.0100694,9.42710463 C55.7884808,11.2687035 55.7372572,14.2033016 53.8956583,15.981713 L50.6005335,19.163778 C48.7589347,20.9421893 45.8243366,20.8909657 44.0459252,19.0493669 Z M18.2380047,19.0493669 C16.4595934,20.8909657 13.5249953,20.9421893 11.6833964,19.163778 L8.3882716,15.981713 C6.54667273,14.2033016 6.49544913,11.2687035 8.27386049,9.42710463 L9.85900931,7.78563497 C11.6374207,5.9440361 14.5720188,5.8928125 16.4136177,7.67122386 L19.7087424,10.8532889 C21.5503413,12.6317002 21.6015649,15.5662984 19.8231536,17.4078972 L18.2380047,19.0493669 Z M48.1163131,32.4155816 L48.1163131,29.4097405 C48.1163131,26.8496168 50.1917034,24.7742265 52.7518271,24.7742265 L57.3325896,24.7742265 C59.8927133,24.7742265 61.9681036,26.8496168 61.9681036,29.4097405 L61.9681036,32.4155816 C61.9681036,34.9757053 59.8927133,37.0510956 57.3325896,37.0510956 L52.7518271,37.0510956 C50.1917034,37.0510956 48.1163131,34.9757053 48.1163131,32.4155816 Z M0.0228551558,32.4155816 L0.0228551558,29.4097405 C0.0228551558,26.8496168 2.09824547,24.7742265 4.65836917,24.7742265 L9.23913168,24.7742265 C11.7992554,24.7742265 13.8746457,26.8496168 13.8746457,29.4097405 L13.8746457,32.4155816 C13.8746457,34.9757053 11.7992554,37.0510956 9.23913168,37.0510956 L4.65836917,37.0510956 C2.09824547,37.0510956 0.0228551558,34.9757053 0.0228551558,32.4155816 Z" id="Combined-Shape"></path>
            </g>
            <path d="M41.2712871,35.6963658 L39.4291894,33.8409504 C38.4507294,32.7874993 37.7742455,31.2982454 37.3997377,29.3731885 L37.3997377,26.8438583 L37.3997377,25.3640919 C36.5077283,22.2800346 34.1024336,20.4921194 30.1838538,20.0003464 C27.6670413,19.990727 26.0299216,20.181467 25.2724946,20.5725662 C24.5150676,20.9636654 24.6853652,21.5035682 25.7833873,22.1922744 L28.9646007,24.138909 C29.7583436,24.5878561 30.3496119,25.1152405 30.7384058,25.7210622 C31.1271996,26.3268839 30.7462831,27.7346039 29.5956563,29.9442224 C28.4066442,31.8022732 27.1358878,32.5430294 25.7833873,32.1664909 L21.4193702,29.3731885 C20.1670055,29.004227 19.7433978,29.5224862 20.1485471,30.9279661 C21.1680628,33.5553676 22.4516365,35.4309112 23.9992683,36.5545967 C24.9925484,37.4333841 26.1453448,37.961065 27.4576574,38.1376394 L30.1838538,38.1376394 C32.1301595,38.328577 33.9276967,39.2677159 35.5764656,40.9550561 C37.2252345,42.6423963 41.1446487,46.4488276 47.3347084,52.3743501 C48.448552,53.9981762 49.0081107,55.418184 49.0133845,56.6343735 C49.0186583,57.850563 49.0212952,59.0254419 49.0212952,60.1590104 C49.3032776,62.2208136 51.0112267,63.771704 54.1667719,64.8256163 C55.7630029,65.0581279 57.479063,65.0581279 59.3149522,64.8256163 C61.1508415,64.5931046 61.1508415,63.9248559 59.3149522,62.8208703 C56.7131912,61.5772722 55.2306727,60.3454678 54.8673968,59.1254569 C55.5343845,56.0840278 56.8565856,54.2330268 58.8340001,53.5724538 C59.1231922,53.3492321 60.7136821,54.2189272 63.6054697,56.1815391 C64.8420463,56.8497548 65.2622494,56.2729229 64.8420463,54.4293011 C63.1883374,51.5889561 61.571345,49.6736504 59.9910689,48.6833839 C59.1987947,48.4260992 58.5950428,48.3270396 58.1798131,48.3862052 C56.7715036,48.3746751 55.852591,48.3213075 55.4230753,48.2261022 C54.7788017,48.0832943 53.0048965,47.6227513 50.5637867,45.027008 C48.9363801,43.2965124 45.8305356,40.1771402 41.2462532,35.6688914" id="Path-2" fill="#243644"></path>
            <path d="M15.3987587,35.6338628 C17.4786454,41.1266012 21.4232305,44.0372469 24.9565672,45.4584172 C28.4899038,46.8795874 34.0266158,46.7167671 36.7515356,45.4584172 L37.296679,45.0597058 L42.9088396,50.5754774 C35.0717396,55.1415075 26.9351471,55.1415075 18.4990624,50.5754774 C5.84493521,43.7264321 4.40030552,28.4389875 10.4462428,17.5123532 C13.8922763,11.2844441 19.6196913,8.45126945 23.7255533,7.16530426 C29.3729239,5.19299882 35.8385488,5.52309372 43.8144896,9.71789084 C55.7926271,16.0175685 56.0504879,35.7057171 54.0725426,37.0410408 C53.2027573,39.4324263 52.4711644,40.796901 51.7836249,42.1596501 L46.1286923,36.5284482 C49.237143,27.726794 47.0424007,20.8616873 39.5444656,15.9331281 C28.2975628,8.54028924 16.1234912,18.6310433 15.4282475,24.3028891 C14.0121676,28.235376 14.0121676,31.9720372 15.3987587,35.6338628 Z" id="Path-4" fill="#9D542C"></path>
        </g>
    </g>
</svg>