<?xml version="1.0" encoding="UTF-8"?>
<svg width="781px" height="552px" viewBox="0 0 781 552" version="1.1" xmlns="http://www.w3.org/2000/svg" xmlns:xlink="http://www.w3.org/1999/xlink">
    <!-- Generator: Sketch 48.2 (47327) - http://www.bohemiancoding.com/sketch -->
    <title>693</title>
    <desc>Created with Sketch.</desc>
    <defs>
        <path d="M1.782,1.53 L0.33,1.53 C0.788,1.057 1.272,0.555 1.782,0.027 L1.782,1.53 Z" id="path-1"></path>
    </defs>
    <g id="Page-1" stroke="none" stroke-width="1" fill="none" fill-rule="evenodd">
        <g id="693">
            <path d="M0.673,535.339 L780.601,535.339" id="Stroke-1" stroke="#6C6976" stroke-width="7"></path>
            <polygon id="Fill-2" fill="#161B36" points="113.558 274.465 179.676 274.465 179.676 132.248 113.558 132.248"></polygon>
            <path d="M40.118,224.559 L252.14,224.559 L252.14,87.658 C252.14,82.868 248.257,78.986 243.468,78.986 L48.79,78.986 C44,78.986 40.118,82.868 40.118,87.658 L40.118,224.559" id="Fill-3" fill="#6E6C76"></path>
            <path d="M60.453,245.825 L235.805,245.825 C245.916,245.825 254.113,237.628 254.113,227.517 L254.113,220.503 L42.144,220.503 L42.144,227.517 C42.144,237.628 50.341,245.825 60.453,245.825" id="Fill-4" fill="#6E6C76"></path>
            <path d="M259.56,87.65 L259.56,224.56 L207.53,223.73 L153.07,222.86 L135.87,222.58 L80.83,221.7 L47.53,221.17 L47.53,87.65 C47.53,82.87 51.41,78.99 56.2,78.99 L250.88,78.99 C255.68,78.99 259.56,82.87 259.56,87.65" id="Fill-5" fill="#27282F"></path>
            <path d="M55.449,91.53 L55.449,212.316 C55.449,212.759 55.808,213.118 56.25,213.118 L250.842,213.118 C251.285,213.118 251.643,212.759 251.643,212.316 L251.643,91.53 C251.643,91.087 251.285,90.728 250.842,90.728 L56.25,90.728 C55.808,90.728 55.449,91.087 55.449,91.53" id="Fill-6" fill="#FFFFFE"></path>
            <path d="M65.865,245.825 L241.217,245.825 C251.328,245.825 259.525,237.628 259.525,227.517 L259.525,220.503 L47.557,220.503 L47.557,227.517 C47.557,237.628 55.753,245.825 65.865,245.825" id="Fill-7" fill="#9997A2"></path>
            <path d="M111.89,275.016 L200.517,275.016 C203.237,275.016 205.441,272.812 205.441,270.092 C205.441,267.373 203.237,265.168 200.517,265.168 L111.89,265.168 C109.171,265.168 106.966,267.373 106.966,270.092 C106.966,272.812 109.171,275.016 111.89,275.016" id="Fill-8" fill="#9997A2"></path>
            <path d="M242.336,111.973 L68.039,111.973 C66.588,111.973 65.412,110.797 65.412,109.345 L65.412,99.178 C65.412,97.726 66.588,96.549 68.039,96.549 L242.336,96.549 C243.787,96.549 244.964,97.726 244.964,99.178 L244.964,109.345 C244.964,110.797 243.787,111.973 242.336,111.973" id="Fill-9" fill="#6980B1"></path>
            <path d="M79.011,104.02 C79.011,105.881 77.539,107.39 75.722,107.39 C73.906,107.39 72.433,105.881 72.433,104.02 C72.433,102.159 73.906,100.65 75.722,100.65 C77.539,100.65 79.011,102.159 79.011,104.02" id="Fill-10" fill="#DA4F43"></path>
            <path d="M91.004,104.02 C91.004,105.881 89.532,107.39 87.715,107.39 C85.899,107.39 84.427,105.881 84.427,104.02 C84.427,102.159 85.899,100.65 87.715,100.65 C89.532,100.65 91.004,102.159 91.004,104.02" id="Fill-11" fill="#F7C04B"></path>
            <path d="M102.998,104.02 C102.998,105.881 101.525,107.39 99.709,107.39 C97.893,107.39 96.42,105.881 96.42,104.02 C96.42,102.159 97.893,100.65 99.709,100.65 C101.525,100.65 102.998,102.159 102.998,104.02" id="Fill-12" fill="#99C53E"></path>
            <path d="M124.784,139.034 L66.536,139.034 C65.662,139.034 64.953,138.325 64.953,137.451 L64.953,119.683 C64.953,118.809 65.662,118.101 66.536,118.101 L124.784,118.101 C125.658,118.101 126.366,118.809 126.366,119.683 L126.366,137.451 C126.366,138.325 125.658,139.034 124.784,139.034" id="Fill-13" fill="#2F365B"></path>
            <path d="M196.28,165.475 L138.032,165.475 C137.158,165.475 136.449,164.766 136.449,163.892 L136.449,146.125 C136.449,145.251 137.158,144.542 138.032,144.542 L196.28,144.542 C197.154,144.542 197.862,145.251 197.862,146.125 L197.862,163.892 C197.862,164.766 197.154,165.475 196.28,165.475" id="Fill-14" fill="#638566"></path>
            <path d="M243.381,139.033 L208.152,139.033 C207.278,139.033 206.57,138.325 206.57,137.451 L206.57,119.683 C206.57,118.809 207.278,118.101 208.152,118.101 L243.381,118.101 C244.255,118.101 244.964,118.809 244.964,119.683 L244.964,137.451 C244.964,138.325 244.255,139.033 243.381,139.033" id="Fill-15" fill="#638566"></path>
            <path d="M243.381,165.888 L208.152,165.888 C207.278,165.888 206.57,165.179 206.57,164.305 L206.57,146.538 C206.57,145.664 207.278,144.955 208.152,144.955 L243.381,144.955 C244.255,144.955 244.964,145.664 244.964,146.538 L244.964,164.305 C244.964,165.179 244.255,165.888 243.381,165.888" id="Fill-16" fill="#DA4F43"></path>
            <polygon id="Fill-17" fill="#161B36" points="136.907 136.363 198.32 136.363 198.32 134.862 136.907 134.862"></polygon>
            <polygon id="Fill-18" fill="#161B36" points="136.907 131.021 198.32 131.021 198.32 129.52 136.907 129.52"></polygon>
            <polygon id="Fill-19" fill="#161B36" points="136.907 125.68 198.32 125.68 198.32 124.179 136.907 124.179"></polygon>
            <polygon id="Fill-20" fill="#161B36" points="136.907 120.339 198.32 120.339 198.32 118.838 136.907 118.838"></polygon>
            <path d="M124.784,191.503 L66.536,191.503 C65.662,191.503 64.953,190.794 64.953,189.92 L64.953,172.153 C64.953,171.279 65.662,170.57 66.536,170.57 L124.784,170.57 C125.658,170.57 126.366,171.279 126.366,172.153 L126.366,189.92 C126.366,190.794 125.658,191.503 124.784,191.503" id="Fill-21" fill="#DA4F43"></path>
            <polygon id="Fill-22" fill="#161B36" points="136.907 188.832 198.32 188.832 198.32 187.331 136.907 187.331"></polygon>
            <polygon id="Fill-23" fill="#161B36" points="136.907 183.491 198.32 183.491 198.32 181.99 136.907 181.99"></polygon>
            <polygon id="Fill-24" fill="#161B36" points="136.907 178.15 198.32 178.15 198.32 176.648 136.907 176.648"></polygon>
            <polygon id="Fill-25" fill="#161B36" points="136.907 172.808 198.32 172.808 198.32 171.307 136.907 171.307"></polygon>
            <polygon id="Fill-26" fill="#161B36" points="64.724 161.978 126.137 161.978 126.137 160.477 64.724 160.477"></polygon>
            <polygon id="Fill-27" fill="#161B36" points="64.724 156.636 126.137 156.636 126.137 155.135 64.724 155.135"></polygon>
            <polygon id="Fill-28" fill="#161B36" points="64.724 151.295 126.137 151.295 126.137 149.794 64.724 149.794"></polygon>
            <polygon id="Fill-29" fill="#161B36" points="64.724 145.954 126.137 145.954 126.137 144.453 64.724 144.453"></polygon>
            <path d="M153.161,220.503 L80.921,220.503 L84.317,213.118 L156.585,213.118 L153.161,220.503 M195.753,90.728 L140.602,90.728 L146,78.99 L189.499,78.99 C191.294,83.474 193.473,87.38 195.753,90.728" id="Fill-30" fill="#333444"></path>
            <path d="M156.585,213.118 L84.317,213.118 L94.257,191.503 L124.784,191.503 C125.658,191.503 126.366,190.794 126.366,189.92 L126.366,172.153 C126.366,171.279 125.658,170.57 124.784,170.57 L103.884,170.57 L107.835,161.978 L126.137,161.978 L126.137,160.477 L108.526,160.477 L110.292,156.636 L126.137,156.636 L126.137,155.135 L110.982,155.135 L112.748,151.295 L126.137,151.295 L126.137,149.794 L113.439,149.794 L115.205,145.954 L126.137,145.954 L126.137,144.453 L115.895,144.453 L118.387,139.034 L124.784,139.034 C125.658,139.034 126.366,138.325 126.366,137.451 L126.366,121.683 L130.831,111.973 L203.47,111.973 L197.812,124.179 L136.907,124.179 L136.907,125.68 L197.116,125.68 L195.336,129.52 L136.907,129.52 L136.907,131.021 L194.64,131.021 L192.86,134.862 L136.907,134.862 L136.907,136.363 L192.164,136.363 L188.373,144.542 L138.032,144.542 C137.158,144.542 136.449,145.251 136.449,146.125 L136.449,163.892 C136.449,164.766 137.158,165.475 138.032,165.475 L178.669,165.475 L175.966,171.307 L136.907,171.307 L136.907,172.808 L175.27,172.808 L173.49,176.648 L136.907,176.648 L136.907,178.15 L172.794,178.15 L171.014,181.99 L136.907,181.99 L136.907,183.491 L170.318,183.491 L168.538,187.331 L136.907,187.331 L136.907,188.832 L167.842,188.832 L156.585,213.118 Z M136.907,120.339 L198.32,120.339 L198.32,118.838 L136.907,118.838 L136.907,120.339 Z M200.242,96.549 L137.925,96.549 L140.602,90.728 L195.753,90.728 C197.232,92.901 198.754,94.839 200.242,96.549 Z" id="Fill-31" fill="#FFFFFE"></path>
            <polyline id="Fill-32" fill="#B8B7C8" points="153.07 220.7 80.83 220.7 80.921 220.503 153.161 220.503 153.07 220.7"></polyline>
            <path d="M203.47,111.973 L130.831,111.973 L137.925,96.549 L200.242,96.549 C202.873,99.573 205.396,101.884 207.389,103.519 L203.47,111.973" id="Fill-33" fill="#8BA6CB"></path>
            <path d="M124.784,139.034 L118.387,139.034 L126.366,121.683 L126.366,137.451 C126.366,138.325 125.658,139.034 124.784,139.034" id="Fill-34" fill="#38498C"></path>
            <path d="M178.669,165.475 L138.032,165.475 C137.158,165.475 136.449,164.766 136.449,163.892 L136.449,146.125 C136.449,145.251 137.158,144.542 138.032,144.542 L188.373,144.542 L178.669,165.475" id="Fill-35" fill="#80AA96"></path>
            <polyline id="Fill-36" fill="#272E5B" points="192.164 136.363 136.907 136.363 136.907 134.862 192.86 134.862 192.164 136.363"></polyline>
            <polyline id="Fill-37" fill="#272E5B" points="194.64 131.021 136.907 131.021 136.907 129.52 195.336 129.52 194.64 131.021"></polyline>
            <polyline id="Fill-38" fill="#272E5B" points="197.116 125.68 136.907 125.68 136.907 124.179 197.812 124.179 197.116 125.68"></polyline>
            <polygon id="Fill-39" fill="#272E5B" points="136.907 120.339 198.32 120.339 198.32 118.838 136.907 118.838"></polygon>
            <path d="M124.784,191.503 L94.257,191.503 L103.884,170.57 L124.784,170.57 C125.658,170.57 126.366,171.279 126.366,172.153 L126.366,189.92 C126.366,190.794 125.658,191.503 124.784,191.503" id="Fill-40" fill="#E3695E"></path>
            <polyline id="Fill-41" fill="#272E5B" points="167.842 188.832 136.907 188.832 136.907 187.331 168.538 187.331 167.842 188.832"></polyline>
            <polyline id="Fill-42" fill="#272E5B" points="170.318 183.491 136.907 183.491 136.907 181.99 171.014 181.99 170.318 183.491"></polyline>
            <polyline id="Fill-43" fill="#272E5B" points="172.794 178.15 136.907 178.15 136.907 176.648 173.49 176.648 172.794 178.15"></polyline>
            <polyline id="Fill-44" fill="#272E5B" points="175.27 172.808 136.907 172.808 136.907 171.307 175.966 171.307 175.27 172.808"></polyline>
            <polyline id="Fill-45" fill="#272E5B" points="126.137 161.978 107.835 161.978 108.526 160.477 126.137 160.477 126.137 161.978"></polyline>
            <polyline id="Fill-46" fill="#272E5B" points="126.137 156.636 110.292 156.636 110.982 155.135 126.137 155.135 126.137 156.636"></polyline>
            <polyline id="Fill-47" fill="#272E5B" points="126.137 151.295 112.748 151.295 113.439 149.794 126.137 149.794 126.137 151.295"></polyline>
            <polyline id="Fill-48" fill="#272E5B" points="126.137 145.954 115.205 145.954 115.895 144.453 126.137 144.453 126.137 145.954"></polyline>
            <path d="M266.36,8.45 L279.934,16.849 C289.769,22.935 293.281,35.549 288.029,45.853 C286.984,47.902 286.332,49.222 286.463,49.071 C286.977,48.48 265.673,8.622 265.673,8.622" id="Fill-49" fill="#6D4536"></path>
            <path d="M231.034,138.277 L224.012,138.277 C217.568,138.277 212.296,133.005 212.296,126.562 L212.296,93.55 C212.296,87.107 217.568,81.835 224.012,81.835 L231.034,81.835 C237.477,81.835 242.749,87.107 242.749,93.55 L242.749,126.562 C242.749,133.005 237.477,138.277 231.034,138.277" id="Fill-50" fill="#F2B59D"></path>
            <path d="M286.224,49.071 C286.539,51.73 274.08,56.225 273.934,59.03 L275.96,64.661 C260.663,59.115 274.159,67.567 274.159,67.588 C269.616,81.068 271.195,88.527 258.217,93.655 C251.75,96.21 244.653,97.381 237.265,96.858 C233.622,96.605 230.129,96.862 226.811,97.119 C221.09,97.562 215.887,98.005 211.33,95.833 C209.844,95.142 208.442,94.158 207.102,92.839 C204.569,90.307 202.309,87.523 200.403,84.508 C199.671,83.315 198.959,82.122 198.31,80.867 C194.396,73.31 186.39,51.122 187.039,42.017 C188.839,16.313 213.465,-0.893 241.807,1.053 C242.539,1.103 243.251,1.116 243.984,1.158 C259.285,2.225 272.368,10.347 280.363,22.131 C280.782,22.76 281.2,23.408 281.598,24.057 L281.598,24.078 C283.9,27.825 285.136,43.859 285.136,43.859 C285.66,45.554 286.015,47.292 286.224,49.071" id="Fill-51" fill="#6D4536"></path>
            <path d="M285.082,57.297 L284.726,64.351 L284.119,76.052 L283.167,80.2 C283.083,82.042 282.151,91.73 281.816,93.488 C278.592,110.045 267.721,113.562 250.849,115.655 C250.348,115.739 249.824,115.781 249.321,115.801 C247.521,115.99 245.7,116.011 243.837,115.927 C242.037,115.843 240.279,115.613 238.541,115.278 C235.172,114.671 231.927,113.603 228.934,112.18 L228.892,112.16 C221.44,108.643 215.307,102.887 211.33,95.833 C208.296,90.495 206.495,84.425 206.307,77.998 C206.285,77.559 206.285,77.12 206.285,76.659 C206.265,76.157 206.285,75.613 206.327,75.068 L206.327,74.796 L206.369,73.519 L206.558,70.191 L207.123,58.699 L207.143,58.595 L207.143,58.574 L207.249,56.439 L207.332,54.785 L207.416,53.258 L207.437,52.859 C207.605,50.201 208.128,47.647 208.923,45.198 C209.425,43.461 210.074,41.787 210.807,40.175 C210.912,39.924 210.995,39.694 211.121,39.442 C211.707,38.124 212.398,36.805 213.151,35.57 L213.151,35.549 C215.998,30.798 219.808,26.695 224.329,23.534 C225.229,22.885 226.17,22.278 227.113,21.713 C233.686,17.862 241.43,15.789 249.573,16.208 C256.355,16.564 261.367,18.594 266.83,21.88 C270.136,23.869 273.13,26.318 275.705,29.144 C279.368,33.121 281.754,37.81 283.512,42.98 C283.617,43.273 283.701,43.566 283.785,43.859 C284.308,45.554 284.664,47.292 284.872,49.071 C285.187,51.73 285.229,54.492 285.082,57.297" id="Fill-52" fill="#F4C2AA"></path>
            <path d="M270.837,22.32 C279.113,45.123 257.324,43.265 256.31,53.737 C256.196,54.915 255.777,56.648 255.466,65.224 L253.801,70.589 C253.319,72.263 251.77,73.414 250.033,73.414 C247.856,73.414 246.098,71.656 246.098,69.48 L246.098,69.375 L246.287,60.835 L242.037,72.096 C238.981,80.217 234.334,87.564 228.473,93.76 C223.596,98.888 217.882,103.242 211.54,106.55 C211.54,106.55 184.956,90.746 184.956,54.66 C184.956,51.792 185.124,48.799 185.479,45.68 C185.814,42.875 186.274,40.258 186.903,37.81 C197.912,-7.026 253.006,8.275 258.301,10.263 C263.869,12.357 270.837,22.32 270.837,22.32" id="Fill-53" fill="#6D4536"></path>
            <path d="M289.77,81.463 L289.761,82.054 C289.689,84.521 287.552,86.48 282.262,86.328 L283.002,67.072 C287.298,73.623 289.381,77.431 289.77,81.463" id="Fill-54" fill="#F4C2AA"></path>
            <path d="M286.892,58.157 L275.118,58.157 C273.751,58.157 272.632,57.039 272.632,55.671 C272.632,54.304 273.751,53.186 275.118,53.186 L286.892,53.186 C288.259,53.186 289.378,54.304 289.378,55.671 C289.378,57.039 288.259,58.157 286.892,58.157" id="Fill-55" fill="#6D4536"></path>
            <path d="M280.276,67.022 C279.299,67.022 278.5,66.223 278.5,65.246 L278.5,62.631 C278.5,61.655 279.299,60.855 280.276,60.855 C281.252,60.855 282.052,61.655 282.052,62.631 L282.052,65.246 C282.052,66.223 281.252,67.022 280.276,67.022" id="Fill-56" fill="#11132B"></path>
            <path d="M211.54,106.55 C211.54,106.55 209.879,105.563 207.389,103.519 C205.396,101.884 202.873,99.573 200.242,96.549 C193.003,88.228 184.956,74.513 184.956,54.66 C184.956,51.792 185.124,48.799 185.479,45.68 C185.814,42.875 186.274,40.258 186.903,37.81 C188.075,44.675 191.173,55.078 199.085,67.93 C211.121,87.481 224.183,92.567 228.473,93.76 C225.011,97.401 221.126,100.651 216.895,103.414 C215.404,104.388 213.871,105.3 212.296,106.148 C212.045,106.284 211.793,106.418 211.54,106.55" id="Fill-57" fill="#583B35"></path>
            <path d="M282.167,92.289 L281.816,105.763 C281.816,117.249 268.212,121.865 258.115,120.773 L242.022,119.033 L243.642,105.087 L248.034,78.399 L240.939,58.467 L255.551,64.533 L255.549,64.555 C254.445,80.392 265.792,93.193 281.651,92.461 L282.167,92.289" id="Fill-58" fill="#6D4536"></path>
            <path d="M245.131,57.97 C246.757,57.979 248.068,59.307 248.057,60.933 L247.988,70.96 L247.919,79.718 L244.476,79.698 C244.224,79.693 243.972,79.689 243.735,79.652 C237.978,79.216 233.433,74.182 233.462,68.427 C233.472,65.44 234.744,62.9 236.763,60.924 C238.571,59.162 241.011,58.158 243.708,58.008 L243.724,58.007 C244.036,57.962 244.302,57.95 244.618,57.967 L245.131,57.97" id="Fill-59" fill="#F2B59D"></path>
            <polygon id="Fill-60" fill="#11132B" points="141.75 368.291 234.351 368.291 234.351 351.216 141.75 351.216"></polygon>
            <path d="M110.167,510.486 L110.167,517.035" id="Fill-61" fill="#2F365B"></path>
            <polygon id="Fill-62" fill="#6C6976" points="495.828 369.733 580.652 369.733 580.652 352.658 495.828 352.658"></polygon>
            <polygon id="Fill-63" fill="#6C6976" points="567 535.054 586.293 535.054 586.293 294.592 567 294.592"></polygon>
            <polygon id="Fill-64" fill="#AAA7B4" points="489.532 535.054 508.825 535.054 508.825 293.15 489.532 293.15"></polygon>
            <polygon id="Fill-65" fill="#6C6976" points="489.532 386.599 508.825 386.599 508.825 283.391 489.532 283.391"></polygon>
            <polygon id="Fill-66" fill="#6C6976" points="33.162 369.733 117.985 369.733 117.985 352.658 33.162 352.658"></polygon>
            <polygon id="Fill-67" fill="#6C6976" points="104.334 535.054 123.627 535.054 123.627 294.592 104.334 294.592"></polygon>
            <polygon id="Fill-68" fill="#6C6976" points="26.865 535.054 46.159 535.054 46.159 293.15 26.865 293.15"></polygon>
            <polygon id="Fill-69" fill="#52505B" points="383.811 270.028 447.483 270.028 447.483 133.073 383.811 133.073"></polygon>
            <path d="M515.203,225.046 L305.897,225.046 L305.897,97.21 C305.897,92.598 309.636,88.859 314.247,88.859 L506.852,88.859 C511.464,88.859 515.203,92.598 515.203,97.21 L515.203,225.046" id="Fill-70" fill="#DADAD5"></path>
            <path d="M495.546,245.526 L321.553,245.526 C311.816,245.526 303.922,237.632 303.922,227.895 L303.922,221.141 L513.177,221.141 L513.177,227.895 C513.177,237.632 505.284,245.526 495.546,245.526" id="Fill-71" fill="#DADAD5"></path>
            <path d="M507.99,97.2 L507.99,225.05 L298.68,225.05 L298.68,97.2 C298.68,92.59 302.42,88.86 307.03,88.86 L499.64,88.86 C504.25,88.86 507.99,92.59 507.99,97.2" id="Fill-72" fill="#706F78"></path>
            <path d="M500.37,96.94 L500.37,213.26 C500.37,213.68 500.02,214.03 499.59,214.03 L307.07,214.03 C306.65,214.03 306.3,213.68 306.3,213.26 L306.3,96.94 C306.3,96.51 306.65,96.17 307.07,96.17 L499.59,96.17 C500.02,96.17 500.37,96.51 500.37,96.94" id="Fill-73" fill="#222D53"></path>
            <path d="M507.97,221.14 L507.97,227.89 C507.97,234.97 503.8,241.08 497.78,243.88 C495.52,244.94 492.99,245.53 490.33,245.53 L316.34,245.53 C306.6,245.53 298.71,237.63 298.71,227.89 L298.71,221.14 L507.97,221.14" id="Fill-74" fill="#A5A2B6"></path>
            <polygon id="Fill-75" fill="#6980B1" points="317.538 112.787 382.564 112.787 382.564 110.536 317.538 110.536"></polygon>
            <polygon id="Fill-76" fill="#DADAD5" points="410.76 112.787 441.549 112.787 441.549 110.536 410.76 110.536"></polygon>
            <polygon id="Fill-77" fill="#F7C04B" points="455.212 112.787 486.001 112.787 486.001 110.536 455.212 110.536"></polygon>
            <polygon id="Fill-78" fill="#6980B1" points="444.289 112.787 451.573 112.787 451.573 110.536 444.289 110.536"></polygon>
            <polygon id="Fill-79" fill="#DA4F43" points="385.613 112.787 407.194 112.787 407.194 110.536 385.613 110.536"></polygon>
            <polygon id="Fill-80" fill="#6980B1" points="317.538 170.411 382.564 170.411 382.564 168.16 317.538 168.16"></polygon>
            <polygon id="Fill-81" fill="#DADAD5" points="410.76 170.411 441.549 170.411 441.549 168.16 410.76 168.16"></polygon>
            <polygon id="Fill-82" fill="#F7C04B" points="455.212 170.411 486.001 170.411 486.001 168.16 455.212 168.16"></polygon>
            <polygon id="Fill-83" fill="#6980B1" points="444.29 170.411 451.573 170.411 451.573 168.16 444.29 168.16"></polygon>
            <polygon id="Fill-84" fill="#9997A2" points="385.613 170.411 407.194 170.411 407.194 168.16 385.613 168.16"></polygon>
            <polygon id="Fill-85" fill="#6980B1" points="420.975 151.203 486.001 151.203 486.001 148.952 420.975 148.952"></polygon>
            <polygon id="Fill-86" fill="#DADAD5" points="361.99 151.203 392.779 151.203 392.779 148.952 361.99 148.952"></polygon>
            <polygon id="Fill-87" fill="#F7C04B" points="317.538 151.203 348.327 151.203 348.327 148.952 317.538 148.952"></polygon>
            <polygon id="Fill-88" fill="#6980B1" points="351.966 151.203 359.25 151.203 359.25 148.952 351.966 148.952"></polygon>
            <polygon id="Fill-89" fill="#9997A2" points="396.345 151.203 417.926 151.203 417.926 148.952 396.345 148.952"></polygon>
            <polygon id="Fill-90" fill="#DA4F43" points="317.538 122.391 341.923 122.391 341.923 120.14 317.538 120.14"></polygon>
            <polygon id="Fill-91" fill="#6980B1" points="390.439 122.391 400.908 122.391 400.908 120.14 390.439 120.14"></polygon>
            <polygon id="Fill-92" fill="#DADAD5" points="434.891 122.391 486.001 122.391 486.001 120.14 434.891 120.14"></polygon>
            <polygon id="Fill-93" fill="#6980B1" points="403.647 122.391 431.252 122.391 431.252 120.14 403.647 120.14"></polygon>
            <polygon id="Fill-94" fill="#6980B1" points="344.971 122.391 386.873 122.391 386.873 120.14 344.971 120.14"></polygon>
            <polygon id="Fill-95" fill="#6980B1" points="317.538 180.016 341.923 180.016 341.923 177.764 317.538 177.764"></polygon>
            <polygon id="Fill-96" fill="#6980B1" points="390.439 180.016 400.908 180.016 400.908 177.764 390.439 177.764"></polygon>
            <polygon id="Fill-97" fill="#6980B1" points="434.891 180.016 486.001 180.016 486.001 177.764 434.891 177.764"></polygon>
            <polygon id="Fill-98" fill="#6980B1" points="403.647 180.016 431.252 180.016 431.252 177.764 403.647 177.764"></polygon>
            <polygon id="Fill-99" fill="#6980B1" points="344.971 180.016 386.873 180.016 386.873 177.764 344.971 177.764"></polygon>
            <polygon id="Fill-100" fill="#DA4F43" points="317.538 160.807 341.923 160.807 341.923 158.556 317.538 158.556"></polygon>
            <polygon id="Fill-101" fill="#6980B1" points="390.439 160.807 400.908 160.807 400.908 158.556 390.439 158.556"></polygon>
            <polygon id="Fill-102" fill="#DADAD5" points="434.891 160.807 486.001 160.807 486.001 158.556 434.891 158.556"></polygon>
            <polygon id="Fill-103" fill="#6980B1" points="403.647 160.807 431.252 160.807 431.252 158.556 403.647 158.556"></polygon>
            <polygon id="Fill-104" fill="#6980B1" points="344.971 160.807 386.873 160.807 386.873 158.556 344.971 158.556"></polygon>
            <polygon id="Fill-105" fill="#DADAD5" points="317.538 131.995 341.923 131.995 341.923 129.744 317.538 129.744"></polygon>
            <polygon id="Fill-106" fill="#6980B1" points="344.971 131.995 386.873 131.995 386.873 129.744 344.971 129.744"></polygon>
            <polygon id="Fill-107" fill="#DADAD5" points="362.488 141.599 386.873 141.599 386.873 139.348 362.488 139.348"></polygon>
            <polygon id="Fill-108" fill="#6980B1" points="317.538 141.599 359.44 141.599 359.44 139.348 317.538 139.348"></polygon>
            <path d="M446.012,273.637 L360.664,273.637 C358.045,273.637 355.922,271.514 355.922,268.895 C355.922,266.276 358.045,264.153 360.664,264.153 L446.012,264.153 C448.631,264.153 450.754,266.276 450.754,268.895 C450.754,271.514 448.631,273.637 446.012,273.637" id="Fill-109" fill="#434251"></path>
            <path d="M602.785,294.407 L333.676,294.407 L333.676,280.496 C333.676,276.286 337.089,272.872 341.299,272.872 L595.161,272.872 C599.371,272.872 602.785,276.286 602.785,280.496 L602.785,294.407" id="Fill-110" fill="#DC8B6B"></path>
            <path d="M524.34,280.5 L524.34,294.41 L6.23,294.41 L6.23,280.5 C6.23,276.29 9.64,272.87 13.85,272.87 L516.72,272.87 C520.93,272.87 524.34,276.29 524.34,280.5" id="Fill-111" fill="#96443C"></path>
            <path d="M374.43,272.87 C370.32,279.57 365.42,287.56 361.23,294.41 L234.47,294.41 L236.2,272.87 L374.43,272.87" id="Fill-112" fill="#72322E"></path>
            <polygon id="Fill-113" fill="#6F3649" points="629.711 535.054 762.854 535.054 762.854 368.214 629.711 368.214"></polygon>
            <polygon id="Fill-114" fill="#5F3449" points="582.529 535.054 713.375 535.054 713.375 368.214 582.529 368.214"></polygon>
            <polygon id="Fill-115" fill="#D17551" points="581.038 425.842 705.16 425.842 705.16 380.707 581.038 380.707"></polygon>
            <polygon id="Fill-116" fill="#D17551" points="581.038 478.806 705.16 478.806 705.16 433.671 581.038 433.671"></polygon>
            <polygon id="Fill-117" fill="#D17551" points="581.038 535.054 705.16 535.054 705.16 486.635 581.038 486.635"></polygon>
            <path d="M620.531,405.692 L651.562,405.692 C652.892,405.692 653.98,404.604 653.98,403.274 C653.98,401.944 652.892,400.856 651.562,400.856 L620.531,400.856 C619.201,400.856 618.113,401.944 618.113,403.274 C618.113,404.604 619.201,405.692 620.531,405.692" id="Fill-118" fill="#FFFFFE"></path>
            <path d="M619.322,458.283 L650.353,458.283 C651.683,458.283 652.771,457.195 652.771,455.865 C652.771,454.535 651.683,453.447 650.353,453.447 L619.322,453.447 C617.992,453.447 616.904,454.535 616.904,455.865 C616.904,457.195 617.992,458.283 619.322,458.283" id="Fill-119" fill="#FFFFFE"></path>
            <path d="M619.322,510.874 L650.353,510.874 C651.683,510.874 652.771,509.786 652.771,508.456 C652.771,507.126 651.683,506.038 650.353,506.038 L619.322,506.038 C617.992,506.038 616.904,507.126 616.904,508.456 C616.904,509.786 617.992,510.874 619.322,510.874" id="Fill-120" fill="#FFFFFE"></path>
            <path d="M278.948,545.255 L341.14,545.917 C344.849,545.956 347.887,542.982 347.926,539.273 C347.957,536.417 346.177,533.854 343.491,532.885 L312.834,521.824 L279.192,522.286 L278.948,545.255" id="Fill-121" fill="#6F3649"></path>
            <path d="M342.368,547.657 L279.406,547.454 L279.42,542.942 L346.894,543.16 C346.886,545.652 344.859,547.666 342.368,547.657" id="Fill-122" fill="#11132B"></path>
            <path d="M312.044,530.916 L319.373,523.134 M317.388,533.191 L324.717,525.408 M322.502,536.228 L330.753,527.403" id="Stroke-123" stroke="#11132B" stroke-width="1.493" stroke-linecap="round"></path>
            <path d="M276.829,524.823 C280.438,464.157 279.464,408.07 274.738,396.711 C269.892,389.657 232.11,374.371 194.349,372.722 L212.02,334.145 C261.548,336.634 296.951,355.216 309.334,376.456 C314.562,385.42 319.102,403.502 316.653,465.361 C315.37,497.761 313.788,523.143 313.788,523.143 L276.829,524.823" id="Fill-124" fill="#171921"></path>
            <path d="M334.326,546.802 L396.52,547.232 C400.229,547.258 403.256,544.272 403.281,540.563 C403.301,537.707 401.512,535.151 398.822,534.192 L368.125,523.245 L334.484,523.832 L334.326,546.802" id="Fill-125" fill="#914D3A"></path>
            <path d="M397.754,548.968 L333.792,548.999 L333.789,544.487 L402.264,544.454 C402.265,546.946 400.246,548.967 397.754,548.968" id="Fill-126" fill="#11132B"></path>
            <path d="M367.368,532.34 L374.668,524.53 M372.721,534.594 L380.021,526.784 M377.847,537.613 L386.064,528.757" id="Stroke-127" stroke="#11132B" stroke-width="1.493" stroke-linecap="round"></path>
            <path d="M332.081,524.823 C335.69,464.157 334.716,408.07 329.991,396.711 C325.144,389.657 287.363,374.371 249.602,372.722 L267.272,334.145 C316.8,336.634 352.204,355.216 364.586,376.456 C369.814,385.42 374.354,403.502 371.905,465.361 C370.622,497.761 369.041,523.143 369.041,523.143 L332.081,524.823" id="Fill-128" fill="#171921"></path>
            <path d="M278.859,345.245 C278.859,352.039 276.44,358.266 272.424,363.12 C267.287,369.346 259.492,373.319 250.771,373.319 L203.567,373.319 C202.164,373.319 200.79,373.215 199.446,373.005 C195.981,372.512 192.726,371.363 189.799,369.705 C189.276,369.422 188.769,369.108 188.275,368.779 C180.585,363.777 175.493,355.1 175.493,345.245 L176.359,330.267 L278.039,329.386 L278.859,345.245" id="Fill-129" fill="#171921"></path>
            <path d="M311.288,265.247 L335.619,261.358 C337.396,261.074 338.617,259.388 338.333,257.611 C338.049,255.834 336.363,254.613 334.586,254.897 L310.255,258.786 C308.479,259.07 307.257,260.756 307.541,262.533 C307.825,264.31 309.511,265.531 311.288,265.247" id="Fill-130" fill="#F2B59D"></path>
            <path d="M319.035,271.825 L338.571,268.703 C340.348,268.419 341.569,266.733 341.285,264.956 C341.001,263.179 339.315,261.958 337.538,262.241 L318.002,265.364 C316.226,265.648 315.004,267.334 315.288,269.111 C315.572,270.888 317.258,272.109 319.035,271.825" id="Fill-131" fill="#F2B59D"></path>
            <path d="M314.519,280.356 L337.642,276.66 C339.418,276.376 340.64,274.69 340.355,272.913 C340.072,271.136 338.385,269.915 336.608,270.199 L313.485,273.895 C311.709,274.179 310.487,275.865 310.771,277.642 C311.056,279.419 312.742,280.64 314.519,280.356" id="Fill-132" fill="#F2B59D"></path>
            <path d="M321.791,258.956 C321.53,258.987 318.545,258.946 315.312,258.892 C309.728,258.799 304.201,260.038 299.189,262.502 L289.593,267.223 C289.593,267.223 295.089,283.532 295.847,283.669 C314.348,287.013 320.695,278.613 320.695,278.613 L321.791,258.956" id="Fill-133" fill="#F2B59D"></path>
            <polygon id="Fill-134" fill="#FFFFFE" points="299.253 285.584 307.466 285.584 307.466 258.892 299.253 258.892"></polygon>
            <path d="M245.432,288.481 C226.068,288.481 208.364,277.178 200.229,259.575 L199.827,258.706 L174.482,181.309 L205.704,171.085 L230.402,246.508 C233.333,252.136 239.227,255.698 245.599,255.627 L299.439,255.094 L299.765,287.946 L245.924,288.479 C245.761,288.48 245.595,288.481 245.432,288.481" id="Fill-135" fill="#171921"></path>
            <path d="M421.105,256.569 C419.092,252.981 416.069,250.044 412.379,248.226 L412.292,248.183 C407.274,245.731 401.743,244.511 396.16,244.62 L385.467,244.827 C385.467,244.827 382.758,268.026 382.897,267.269 C383.173,265.763 409.038,266.15 420.89,266.407 C423.457,266.462 425.108,263.706 423.852,261.466 L421.105,256.569" id="Fill-136" fill="#F2B59D"></path>
            <polygon id="Fill-137" fill="#FFFFFE" points="378.996 270.421 389.2 270.421 389.2 243.08 378.996 243.08"></polygon>
            <path d="M329.057,273.548 C309.694,273.548 291.99,262.245 283.854,244.642 L247.357,165.666 L277.18,151.885 L313.676,230.86 C316.468,236.9 322.508,240.775 329.224,240.695 L383.064,240.162 L383.389,273.013 L329.549,273.546 C329.386,273.547 329.221,273.548 329.057,273.548" id="Fill-138" fill="#1F202B"></path>
            <path d="M287.567,181.116 L286.187,337.881 C286.187,337.881 284.292,339.999 278.651,342.965 C273.756,345.546 266.057,348.769 254.33,351.812 C240.664,355.362 221.418,355.91 204.975,355.507 C186.834,355.062 172.115,353.467 172.115,353.467 L172.492,181.116 C172.492,156.863 190.049,136.691 213.154,132.627 C215.931,132.147 218.786,131.899 221.709,131.899 L238.35,131.899 C265.526,131.899 287.567,153.94 287.567,181.116" id="Fill-139" fill="#1F202B"></path>
            <polygon id="Fill-140" fill="#AAA7B4" points="210.792 502.77 227.406 502.77 227.406 407.402 210.792 407.402"></polygon>
            <path d="M210.792,412.779 L210.792,433.653 L227.406,427.593 L227.406,413.461 C223.248,413.276 215.246,412.963 210.792,412.779" id="Fill-141" fill="#6C6976"></path>
            <path d="M270.209,415.644 L170.735,415.644 C165.637,415.644 161.465,411.472 161.465,406.374 C161.465,401.275 165.637,397.104 170.735,397.104 L270.209,397.104 C275.308,397.104 279.479,401.275 279.479,406.374 C279.479,411.472 275.308,415.644 270.209,415.644" id="Fill-142" fill="#27282F"></path>
            <path d="M289.511,533.564 L279.118,533.564 C279.118,521.86 269.017,512.338 256.601,512.338 L180.88,512.338 C168.463,512.338 158.362,521.86 158.362,533.564 L147.969,533.564 C147.969,516.458 162.733,502.542 180.88,502.542 L256.601,502.542 C274.748,502.542 289.511,516.458 289.511,533.564" id="Fill-143" fill="#27282F"></path>
            <polygon id="Fill-144" fill="#27282F" points="206.862 502.775 231.113 502.775 231.113 487.846 206.862 487.846"></polygon>
            <path d="M161.402,543.037 C161.402,547.531 157.537,551.174 152.769,551.174 C148.001,551.174 144.136,547.531 144.136,543.037 C144.136,538.542 148.001,534.899 152.769,534.899 C157.537,534.899 161.402,538.542 161.402,543.037" id="Fill-145" fill="#11132B"></path>
            <path d="M165.219,542.319 L141.592,542.319 L141.592,540.167 C141.592,534.076 146.53,529.138 152.622,529.138 L154.189,529.138 C160.281,529.138 165.219,534.076 165.219,540.167 L165.219,542.319" id="Fill-146" fill="#161B36"></path>
            <path d="M293.435,543.037 C293.435,547.531 289.57,551.174 284.802,551.174 C280.035,551.174 276.169,547.531 276.169,543.037 C276.169,538.542 280.035,534.899 284.802,534.899 C289.57,534.899 293.435,538.542 293.435,543.037" id="Fill-147" fill="#11132B"></path>
            <path d="M297.252,542.319 L273.625,542.319 L273.625,540.167 C273.625,534.076 278.563,529.138 284.655,529.138 L286.223,529.138 C292.314,529.138 297.252,534.076 297.252,540.167 L297.252,542.319" id="Fill-148" fill="#161B36"></path>
            <polygon id="Fill-149" fill="#27282F" points="212.598 534.963 226.355 534.963 226.355 505.574 212.598 505.574"></polygon>
            <path d="M228.4,543.037 C228.4,547.531 224.535,551.174 219.767,551.174 C214.999,551.174 211.134,547.531 211.134,543.037 C211.134,538.542 214.999,534.899 219.767,534.899 C224.535,534.899 228.4,538.542 228.4,543.037" id="Fill-150" fill="#11132B"></path>
            <path d="M232.216,542.319 L208.59,542.319 L208.59,540.167 C208.59,534.076 213.528,529.138 219.619,529.138 L221.187,529.138 C227.278,529.138 232.216,534.076 232.216,540.167 L232.216,542.319" id="Fill-151" fill="#161B36"></path>
            <path d="M86.817,227.957 L109.066,388.567 C110.419,398.334 118.618,405.703 128.473,406.01 L209.667,406.94 L164.519,204.984 L106.886,204.952 C94.598,204.933 85.131,215.784 86.817,227.957" id="Fill-152" fill="#8D2A38"></path>
            <path d="M305.549,406.94 L192.677,406.94 C183.054,406.94 175.18,399.067 175.18,389.444 C175.18,379.821 183.054,371.947 192.677,371.947 L305.549,371.947 C315.172,371.947 323.045,379.821 323.045,389.444 C323.045,399.067 315.172,406.94 305.549,406.94" id="Fill-153" fill="#DE4345"></path>
            <path d="M199.085,175.929 C196.899,207.589 203.063,321.781 204.975,355.507 C186.834,355.062 172.115,353.467 172.115,353.467 L172.492,181.116 C172.492,156.863 190.049,136.691 213.154,132.627 C213.154,132.627 201.657,138.637 199.085,175.929" id="Fill-154" fill="#171921"></path>
            <polyline id="Fill-155" fill="#FFFFFE" points="255.674 134.882 204.901 134.882 204.901 120.696 255.674 126.696 255.674 134.882"></polyline>
            <path d="M173.717,384.839 L150.132,220.126 C149.081,212.788 154.591,205.974 162.375,204.984 C170.161,203.993 177.39,209.187 178.44,216.525 L202.025,381.238 C203.076,388.576 197.566,395.39 189.781,396.38 C181.997,397.371 177.968,402.874 173.717,384.839" id="Fill-156" fill="#DE4345"></path>
            <path d="M286.958,250.077 L286.187,337.881 C286.187,337.881 284.292,339.999 278.651,342.965 L266.958,210.633 C266.958,210.633 277.673,237.415 286.958,250.077" id="Fill-157" fill="#171921"></path>
            <g id="Group-160" transform="translate(435.000000, 244.000000)">
                <mask id="mask-2" fill="white">
                    <use xlink:href="#path-1"></use>
                </mask>
                <g id="Clip-159"></g>
                <polygon id="Fill-158" fill="#767386" mask="url(#mask-2)" points="0.33 1.53 1.782 1.53 1.782 0.027 0.33 0.027"></polygon>
            </g>
            <path d="M485.74,221.14 L458.74,221.14 C460.962,218.805 463.222,216.422 465.481,214.03 L487.711,214.03 L485.74,221.14" id="Fill-161" fill="#4F5057"></path>
            <path d="M487.711,214.03 L465.481,214.03 C478.162,200.606 490.855,186.867 497,179.33 L497.265,179.562 L487.711,214.03" id="Fill-162" fill="#161E36"></path>
            <path d="M478.98,245.53 L472.775,245.53 L472.775,230.494 C472.775,228.597 471.23,227.053 469.333,227.053 L453.104,227.053 C454.939,225.132 456.826,223.154 458.74,221.14 L485.74,221.14 L478.98,245.53" id="Fill-163" fill="#767386"></path>
            <path d="M477.439,272.633 L586.299,272.633 C586.904,271.763 587.383,270.779 587.673,269.72 L612.029,181.797 C613.202,177.609 610.049,173.459 605.697,173.459 L509.916,173.459 C506.965,173.459 504.379,175.44 503.585,178.278 L477.439,272.633" id="Fill-164" fill="#DADAD5"></path>
            <path d="M606.83,178.66 L582.49,266.5 C581.36,270.59 577.64,273.42 573.39,273.42 L471.25,273.42 L498.49,175.14 C499.28,172.3 501.86,170.33 504.81,170.33 L600.5,170.33 C604.85,170.33 607.99,174.47 606.83,178.66" id="Fill-165" fill="#9997A2"></path>
            <path d="M601.452,182.527 L577.389,269.156 L476.059,269.156 L480.219,254.154 L501.024,179.268 C501.751,176.636 504.158,174.819 506.89,174.819 L595.586,174.819 C599.61,174.819 602.53,178.655 601.452,182.527" id="Fill-166" fill="#222D53"></path>
            <polyline id="Fill-167" fill="#EDEFED" points="541.763 184.562 510.574 184.562 511.269 182.368 542.457 182.368 541.763 184.562"></polyline>
            <polyline id="Fill-168" fill="#DA4F43" points="570.052 184.562 555.285 184.562 555.98 182.368 570.747 182.368 570.052 184.562"></polyline>
            <polyline id="Fill-169" fill="#9997A2" points="591.373 184.562 576.605 184.562 577.3 182.368 592.067 182.368 591.373 184.562"></polyline>
            <polyline id="Fill-170" fill="#6980B1" points="574.86 184.562 571.367 184.562 572.061 182.368 575.554 182.368 574.86 184.562"></polyline>
            <polyline id="Fill-171" fill="#9997A2" points="553.575 184.562 543.225 184.562 543.919 182.368 554.269 182.368 553.575 184.562"></polyline>
            <polyline id="Fill-172" fill="#DADAD5" points="520.044 221.984 534.811 221.984 535.506 219.791 520.739 219.791 520.044 221.984"></polyline>
            <polyline id="Fill-173" fill="#F7C04B" points="498.725 221.984 513.492 221.984 514.186 219.791 499.419 219.791 498.725 221.984"></polyline>
            <polyline id="Fill-174" fill="#6980B1" points="515.237 221.984 518.73 221.984 519.425 219.791 515.932 219.791 515.237 221.984"></polyline>
            <polyline id="Fill-175" fill="#DA4F43" points="519.308 193.917 507.612 193.917 508.306 191.724 520.002 191.724 519.308 193.917"></polyline>
            <polyline id="Fill-176" fill="#6980B1" points="547.598 193.917 542.577 193.917 543.271 191.724 548.292 191.724 547.598 193.917"></polyline>
            <polyline id="Fill-177" fill="#DA4F43" points="588.41 193.917 563.896 193.917 564.591 191.724 589.104 191.724 588.41 193.917"></polyline>
            <polyline id="Fill-178" fill="#6980B1" points="562.151 193.917 548.911 193.917 549.606 191.724 562.846 191.724 562.151 193.917"></polyline>
            <polyline id="Fill-179" fill="#6980B1" points="540.867 193.917 520.77 193.917 521.464 191.724 541.561 191.724 540.867 193.917"></polyline>
            <polyline id="Fill-180" fill="#2F365B" points="501.533 250.051 489.837 250.051 490.532 247.858 502.227 247.858 501.533 250.051"></polyline>
            <polyline id="Fill-181" fill="#DADAD5" points="516.345 203.273 504.649 203.273 505.344 201.08 517.04 201.08 516.345 203.273"></polyline>
            <polyline id="Fill-182" fill="#DADAD5" points="535.433 203.273 523.737 203.273 524.431 201.08 536.127 201.08 535.433 203.273"></polyline>
            <polyline id="Fill-183" fill="#6980B1" points="582.201 203.273 562.104 203.273 562.798 201.08 582.896 201.08 582.201 203.273"></polyline>
            <polyline id="Fill-184" fill="#6980B1" points="501.687 212.628 521.784 212.628 522.479 210.435 502.381 210.435 501.687 212.628"></polyline>
            <polyline id="Fill-185" fill="#9997A2" points="582.887 254.154 578.608 269.156 474.734 269.156 479 254.154 582.887 254.154"></polyline>
            <path d="M526.946,273.657 L402.517,273.657 C399.609,273.657 397.229,271.278 397.229,268.369 C397.229,265.461 399.609,263.081 402.517,263.081 L526.946,263.081 C529.855,263.081 532.234,265.461 532.234,268.369 C532.234,271.278 529.855,273.657 526.946,273.657" id="Fill-186" fill="#9997A2"></path>
            <polyline id="Fill-187" fill="#BBBDCD" points="573.82 174.819 534.69 174.819 536.74 170.33 575.87 170.33 573.82 174.819"></polyline>
            <path d="M537.598,254.154 L498.468,254.154 L498.47,254.15 L500.341,250.051 L501.533,250.051 L502.227,247.858 L501.343,247.858 L513.156,221.984 L513.492,221.984 L514.186,219.791 L514.157,219.791 L517.428,212.628 L521.784,212.628 L522.479,210.435 L518.429,210.435 L525.971,193.917 L540.867,193.917 L541.561,191.724 L526.972,191.724 L530.242,184.562 L541.763,184.562 L542.457,182.368 L531.243,182.368 L534.69,174.82 L534.69,174.819 L573.82,174.819 L573.82,174.82 L570.373,182.368 L555.98,182.368 L555.285,184.562 L569.372,184.562 L566.102,191.724 L564.591,191.724 L563.896,193.917 L565.101,193.917 L537.6,254.15 L537.598,254.154 M520.739,219.791 L520.044,221.984 L534.811,221.984 L535.506,219.791 L520.739,219.791 M515.932,219.791 L515.237,221.984 L518.73,221.984 L519.425,219.791 L515.932,219.791 M524.431,201.08 L523.737,203.273 L535.433,203.273 L536.127,201.08 L524.431,201.08 M549.606,191.724 L548.911,193.917 L562.151,193.917 L562.846,191.724 L549.606,191.724 M543.271,191.724 L542.577,193.917 L547.598,193.917 L548.292,191.724 L543.271,191.724 M543.919,182.368 L543.225,184.562 L553.575,184.562 L554.269,182.368 L543.919,182.368" id="Fill-188" fill="#2A4085"></path>
            <polyline id="Fill-189" fill="#F6F7F7" points="541.763 184.562 530.242 184.562 531.243 182.368 542.457 182.368 541.763 184.562"></polyline>
            <polyline id="Fill-190" fill="#E36C61" points="569.372 184.562 555.285 184.562 555.98 182.368 570.373 182.368 569.372 184.562"></polyline>
            <polyline id="Fill-191" fill="#BBBDCD" points="553.575 184.562 543.225 184.562 543.919 182.368 554.269 182.368 553.575 184.562"></polyline>
            <polyline id="Fill-192" fill="#E9EAEB" points="534.811 221.984 520.044 221.984 520.739 219.791 535.506 219.791 534.811 221.984"></polyline>
            <polyline id="Fill-193" fill="#FBD768" points="513.492 221.984 513.156 221.984 514.157 219.791 514.186 219.791 513.492 221.984"></polyline>
            <polyline id="Fill-194" fill="#8FADCF" points="518.73 221.984 515.237 221.984 515.932 219.791 519.425 219.791 518.73 221.984"></polyline>
            <polyline id="Fill-195" fill="#8FADCF" points="547.598 193.917 542.577 193.917 543.271 191.724 548.292 191.724 547.598 193.917"></polyline>
            <polyline id="Fill-196" fill="#E36C61" points="565.101 193.917 563.896 193.917 564.591 191.724 566.102 191.724 565.101 193.917"></polyline>
            <polyline id="Fill-197" fill="#8FADCF" points="562.151 193.917 548.911 193.917 549.606 191.724 562.846 191.724 562.151 193.917"></polyline>
            <polyline id="Fill-198" fill="#8FADCF" points="540.867 193.917 525.971 193.917 526.972 191.724 541.561 191.724 540.867 193.917"></polyline>
            <polyline id="Fill-199" fill="#3B4D8F" points="501.533 250.051 500.341 250.051 501.343 247.858 502.227 247.858 501.533 250.051"></polyline>
            <polyline id="Fill-200" fill="#E9EAEB" points="535.433 203.273 523.737 203.273 524.431 201.08 536.127 201.08 535.433 203.273"></polyline>
            <polyline id="Fill-201" fill="#8FADCF" points="521.784 212.628 517.428 212.628 518.429 210.435 522.479 210.435 521.784 212.628"></polyline>
            <polyline id="Fill-202" fill="#BBBDCD" points="533.86 262.33 494.73 262.33 498.468 254.154 537.598 254.154 533.86 262.33"></polyline>
            <path d="M406.95,214.03 L349.39,214.03 L364.925,180.016 L386.873,180.016 L386.873,177.764 L365.954,177.764 L369.312,170.411 L382.564,170.411 L382.564,168.16 L370.34,168.16 L373.698,160.807 L386.873,160.807 L386.873,158.556 L374.726,158.556 L378.085,151.203 L392.779,151.203 L392.779,148.952 L379.113,148.952 L382.471,141.599 L386.873,141.599 L386.873,139.348 L383.499,139.348 L386.858,131.995 L386.873,131.995 L386.873,131.961 L391.244,122.391 L400.908,122.391 L400.908,120.14 L392.272,120.14 L395.63,112.787 L407.194,112.787 L407.194,110.536 L396.659,110.536 L403.22,96.17 L460.78,96.17 L449.833,120.14 L434.891,120.14 L434.891,122.391 L448.804,122.391 L436.673,148.952 L420.975,148.952 L420.975,151.203 L435.645,151.203 L427.9,168.16 L410.76,168.16 L410.76,170.411 L426.872,170.411 L423.514,177.764 L403.647,177.764 L403.647,180.016 L422.485,180.016 L406.95,214.03 Z M390.439,180.016 L400.908,180.016 L400.908,177.764 L390.439,177.764 L390.439,180.016 Z M385.613,170.411 L407.194,170.411 L407.194,168.16 L385.613,168.16 L385.613,170.411 Z M403.647,160.807 L431.252,160.807 L431.252,158.556 L403.647,158.556 L403.647,160.807 Z M390.439,160.807 L400.908,160.807 L400.908,158.556 L390.439,158.556 L390.439,160.807 Z M396.345,151.203 L417.926,151.203 L417.926,148.952 L396.345,148.952 L396.345,151.203 Z M403.647,122.391 L431.252,122.391 L431.252,120.14 L403.647,120.14 L403.647,122.391 Z M444.289,112.787 L451.573,112.787 L451.573,110.536 L444.289,110.536 L444.289,112.787 Z M410.76,112.787 L441.549,112.787 L441.549,110.536 L410.76,110.536 L410.76,112.787 Z" id="Fill-203" fill="#2A4085"></path>
            <polygon id="Fill-204" fill="#E9EAEB" points="410.76 112.787 441.549 112.787 441.549 110.536 410.76 110.536"></polygon>
            <polygon id="Fill-205" fill="#8FADCF" points="444.289 112.787 451.573 112.787 451.573 110.536 444.289 110.536"></polygon>
            <polyline id="Fill-206" fill="#E36C61" points="407.194 112.787 395.63 112.787 396.659 110.536 407.194 110.536 407.194 112.787"></polyline>
            <polyline id="Fill-207" fill="#8FADCF" points="382.564 170.411 369.312 170.411 370.34 168.16 382.564 168.16 382.564 170.411"></polyline>
            <polyline id="Fill-208" fill="#E9EAEB" points="426.872 170.411 410.76 170.411 410.76 168.16 427.9 168.16 426.872 170.411"></polyline>
            <polygon id="Fill-209" fill="#BBBDCD" points="385.613 170.411 407.194 170.411 407.194 168.16 385.613 168.16"></polygon>
            <polyline id="Fill-210" fill="#8FADCF" points="435.645 151.203 420.975 151.203 420.975 148.952 436.673 148.952 435.645 151.203"></polyline>
            <polyline id="Fill-211" fill="#E9EAEB" points="392.779 151.203 378.085 151.203 379.113 148.952 392.779 148.952 392.779 151.203"></polyline>
            <polygon id="Fill-212" fill="#BBBDCD" points="396.345 151.203 417.926 151.203 417.926 148.952 396.345 148.952"></polygon>
            <polyline id="Fill-213" fill="#8FADCF" points="400.908 122.391 391.244 122.391 392.272 120.14 400.908 120.14 400.908 122.391"></polyline>
            <polyline id="Fill-214" fill="#E9EAEB" points="448.804 122.391 434.891 122.391 434.891 120.14 449.833 120.14 448.804 122.391"></polyline>
            <polygon id="Fill-215" fill="#8FADCF" points="403.647 122.391 431.252 122.391 431.252 120.14 403.647 120.14"></polygon>
            <polygon id="Fill-216" fill="#8FADCF" points="390.439 180.016 400.908 180.016 400.908 177.764 390.439 177.764"></polygon>
            <polyline id="Fill-217" fill="#8FADCF" points="422.485 180.016 403.647 180.016 403.647 177.764 423.514 177.764 422.485 180.016"></polyline>
            <polyline id="Fill-218" fill="#8FADCF" points="386.873 180.016 364.925 180.016 365.954 177.764 386.873 177.764 386.873 180.016"></polyline>
            <polygon id="Fill-219" fill="#8FADCF" points="390.439 160.807 400.908 160.807 400.908 158.556 390.439 158.556"></polygon>
            <polygon id="Fill-220" fill="#8FADCF" points="403.647 160.807 431.252 160.807 431.252 158.556 403.647 158.556"></polygon>
            <polyline id="Fill-221" fill="#8FADCF" points="386.873 160.807 373.698 160.807 374.726 158.556 386.873 158.556 386.873 160.807"></polyline>
            <polyline id="Fill-222" fill="#8FADCF" points="386.873 131.995 386.858 131.995 386.873 131.961 386.873 131.995"></polyline>
            <polyline id="Fill-223" fill="#E9EAEB" points="386.873 141.599 382.471 141.599 383.499 139.348 386.873 139.348 386.873 141.599"></polyline>
            <path d="M574.117,273.33 L502.099,273.33 C499.19,273.33 496.811,270.95 496.811,268.042 C496.811,265.133 499.19,262.754 502.099,262.754 L574.117,262.754 C577.025,262.754 579.405,265.133 579.405,268.042 C579.405,270.95 577.025,273.33 574.117,273.33" id="Fill-224" fill="#DADAD5"></path>
            <polygon id="Fill-225" fill="#11132B" points="537.951 269.344 548.236 269.344 548.236 266.259 537.951 266.259"></polygon>
            <polygon id="Fill-226" fill="#11132B" points="527.409 269.344 534.865 269.344 534.865 266.259 527.409 266.259"></polygon>
            <path d="M472.775,230.494 L472.775,273.579 L436.782,273.579 L436.782,230.494 C436.782,228.597 438.327,227.053 440.224,227.053 L469.333,227.053 C471.23,227.053 472.775,228.597 472.775,230.494" id="Fill-227" fill="#DF4D45"></path>
            <path d="M437.226,266.206 C436.756,265.937 425.708,259.465 424.722,248.13 C424.346,243.808 425.981,241.13 427.419,239.645 C431.374,235.561 437.946,235.796 438.682,235.835 L438.395,241.094 C437.06,241.032 433.131,241.304 431.193,243.32 C430.204,244.348 429.804,245.772 429.969,247.674 C430.719,256.299 439.759,261.587 439.85,261.639 L437.226,266.206" id="Fill-228" fill="#DA4F43"></path>
            <path d="M455.955,273.579 L436.782,273.579 L436.782,230.494 C436.782,228.597 438.327,227.053 440.224,227.053 L441.383,227.053 C441.435,229.301 442.05,246.488 446.878,258.867 C451.074,269.646 454.814,272.824 455.955,273.579" id="Fill-229" fill="#DA4F43"></path>
            <path d="M455.955,273.581 L436.782,273.581 L436.782,273.579 L455.952,273.579 C455.953,273.58 455.954,273.58 455.955,273.581" id="Fill-230" fill="#B54244"></path>
            <path d="M432.279,262.418 C429.024,259.36 425.27,254.513 424.72,248.123 C424.696,247.839 424.68,247.563 424.673,247.294 C424.681,247.565 424.697,247.844 424.722,248.13 C425.277,254.516 429.027,259.358 432.279,262.418 M436.782,259.387 C434.056,257.053 430.432,253 429.969,247.674 C429.9,246.877 429.93,246.165 430.061,245.53 L430.062,245.53 C429.933,246.163 429.904,246.873 429.97,247.666 C430.444,253.004 434.061,257.059 436.782,259.377 L436.782,259.387" id="Fill-231" fill="#A53537"></path>
            <path d="M430.062,245.53 L430.061,245.53 C430.128,245.202 430.223,244.895 430.344,244.608 C430.223,244.896 430.129,245.203 430.062,245.53" id="Fill-232" fill="#B74447"></path>
            <path d="M424.673,247.288 C424.673,247.285 424.673,247.281 424.672,247.278 C424.673,247.282 424.673,247.285 424.673,247.288" id="Fill-233" fill="#A53537"></path>
            <path d="M431.292,243.22 C432.706,241.839 435.073,241.314 436.782,241.15 L436.782,241.153 C435.081,241.307 432.709,241.848 431.292,243.22 M433.336,236.404 C434.625,236.071 435.834,235.919 436.782,235.85 L436.782,235.861 C435.835,235.924 434.626,236.073 433.336,236.404" id="Fill-234" fill="#B74447"></path>
            <path d="M436.782,265.926 C435.982,265.428 434.219,264.241 432.279,262.418 C429.027,259.358 425.277,254.516 424.722,248.13 C424.697,247.844 424.681,247.565 424.673,247.294 C424.673,247.292 424.673,247.29 424.673,247.288 C424.673,247.285 424.673,247.282 424.672,247.278 C424.569,243.452 426.081,241.035 427.424,239.643 C429.134,237.88 431.332,236.923 433.336,236.404 C434.626,236.073 435.835,235.924 436.782,235.861 L436.782,241.15 C435.073,241.314 432.706,241.839 431.292,243.22 C431.26,243.25 431.23,243.281 431.199,243.312 C430.833,243.691 430.549,244.122 430.344,244.608 C430.223,244.895 430.128,245.202 430.061,245.53 C429.93,246.165 429.9,246.877 429.969,247.674 C430.432,253 434.056,257.053 436.782,259.387 L436.782,265.926" id="Fill-235" fill="#C23531"></path>
            <path d="M455.952,273.579 L436.782,273.579 L436.782,230.495 C436.782,228.599 438.327,227.054 440.223,227.054 L441.382,227.054 C441.435,229.302 442.049,246.49 446.877,258.868 C451.071,269.641 454.808,272.822 455.952,273.579" id="Fill-236" fill="#C23531"></path>
            <polyline id="Fill-237" fill="#5D6C9D" points="56.13 249.817 52.053 249.095 62.011 192.833 66.088 193.555 56.13 249.817"></polyline>
            <polyline id="Fill-238" fill="#5D6C9D" points="64.569 209.264 58.25 208.146 61.244 191.226 67.563 192.345 64.569 209.264"></polyline>
            <polyline id="Fill-239" fill="#6A3C54" points="49.333 257 45.208 256.654 49.982 199.718 52.479 196.076 54.108 200.064 49.333 257"></polyline>
            <polyline id="Fill-240" fill="#1A2341" points="43.599 259.909 39.535 260.701 28.617 204.618 30.026 200.433 32.681 203.826 43.599 259.909"></polyline>
            <polyline id="Fill-241" fill="#E6815C" points="52.736 272.955 35.04 272.955 29.238 226.109 58.538 226.109 52.736 272.955"></polyline>
            <polyline id="Fill-242" fill="#F5B863" points="59.408 272.955 41.712 272.955 39.101 226.109 65.21 226.109 59.408 272.955"></polyline>
            <path d="M605.693,343.552 L605.693,369.333 L695.726,369.333 C701.315,369.333 706.09,365.763 707.875,360.777 C708.354,359.427 708.623,357.965 708.623,356.437 C708.623,352.889 707.183,349.665 704.852,347.323 C702.509,344.991 699.285,343.552 695.726,343.552 L605.693,343.552" id="Fill-243" fill="#DE4345"></path>
            <path d="M695.726,369.333 L625.847,369.333 L625.847,360.777 L707.875,360.777 C706.09,365.763 701.315,369.333 695.726,369.333" id="Fill-244" fill="#C33331"></path>
            <path d="M586.445,343.547 L586.444,369.336 L645.475,369.336 C652.593,369.336 658.369,363.559 658.369,356.441 C658.369,352.89 656.925,349.663 654.597,347.32 C652.254,344.991 649.027,343.547 645.475,343.547 L586.445,343.547" id="Fill-245" fill="#8D2A38"></path>
            <path d="M586.445,347.968 L586.444,364.502 L641.998,364.502 C646.566,364.502 650.264,360.803 650.264,356.235 C650.264,353.951 649.336,351.888 647.847,350.385 C646.344,348.896 644.281,347.968 641.998,347.968 L586.445,347.968" id="Fill-246" fill="#FFFFFE"></path>
            <path d="M603.952,292.302 L603.952,318.091 L693.984,318.09 C701.102,318.09 706.878,312.314 706.878,305.196 C706.878,301.644 705.434,298.417 703.106,296.074 C700.763,293.746 697.536,292.302 693.984,292.302 L603.952,292.302" id="Fill-247" fill="#F0A847"></path>
            <path d="M624.359,300.91 L624.359,292.354 L694.239,292.354 C699.828,292.354 704.603,295.924 706.387,300.91 L624.359,300.91" id="Fill-248" fill="#FAD33B"></path>
            <path d="M586.445,292.302 L586.445,318.091 L645.475,318.09 C652.593,318.09 658.369,312.314 658.369,305.196 C658.369,301.644 656.925,298.417 654.597,296.074 C652.254,293.746 649.027,292.302 645.475,292.302 L586.445,292.302" id="Fill-249" fill="#E57A53"></path>
            <path d="M586.445,296.723 L586.445,313.257 L641.998,313.256 C646.566,313.256 650.264,309.558 650.264,304.99 C650.264,302.706 649.336,300.643 647.847,299.14 C646.344,297.651 644.281,296.723 641.998,296.723 L586.445,296.723" id="Fill-250" fill="#FFFFFE"></path>
            <path d="M599.301,318.239 L599.301,344.032 L689.334,344.032 C696.451,344.032 702.219,338.253 702.219,331.135 C702.219,328.949 701.672,326.885 700.713,325.078 C700.11,323.951 699.341,322.914 698.448,322.01 C696.105,319.678 692.881,318.239 689.334,318.239 L599.301,318.239" id="Fill-251" fill="#99C53E"></path>
            <path d="M601.683,318.239 L601.683,325.078 L700.713,325.078 C700.11,323.951 699.341,322.914 698.448,322.01 C696.105,319.678 692.881,318.239 689.334,318.239 L601.683,318.239" id="Fill-252" fill="#6A9440"></path>
            <path d="M601.683,344.043 L601.683,337.204 L700.713,337.204 C700.11,338.331 699.341,339.368 698.448,340.272 C696.105,342.604 692.881,344.043 689.334,344.043 L601.683,344.043" id="Fill-253" fill="#6A9440"></path>
            <path d="M575.737,318.24 L575.737,344.028 L629.767,344.028 C636.884,344.028 642.661,338.251 642.661,331.134 C642.661,327.582 641.217,324.355 638.888,322.012 C636.545,319.683 633.318,318.239 629.767,318.239 L575.737,318.24" id="Fill-254" fill="#4A7D3C"></path>
            <path d="M575.737,322.661 L575.737,339.194 L626.289,339.194 C630.857,339.194 634.556,335.496 634.556,330.927 C634.556,328.643 633.627,326.58 632.139,325.077 C630.636,323.588 628.573,322.66 626.289,322.66 L575.737,322.661" id="Fill-255" fill="#FFFFFE"></path>
            <path d="M613.189,166.831 C608.882,162.237 609.255,155.148 614.023,150.997 L614.563,150.527 C619.33,146.377 626.688,146.736 630.995,151.33 L630.995,151.331 C635.303,155.925 634.93,163.013 630.162,167.164 L629.622,167.634 C624.854,171.784 617.497,171.425 613.189,166.831" id="Fill-256" fill="#11132B"></path>
            <path d="M622.338,189.126 L611.007,198.99 L578.833,164.677 L590.164,154.813 C598.015,147.979 609.276,147.071 618.016,151.814 C620.224,153.008 622.265,154.558 624.057,156.469 C628.495,161.203 630.526,167.225 630.223,173.141 C629.903,179.056 627.251,184.85 622.338,189.126" id="Fill-257" fill="#D17551"></path>
            <path d="M612.101,178.208 L600.77,188.072 L578.833,164.677 L590.164,154.813 C598.015,147.979 609.276,147.071 618.016,151.814 C619.517,155.124 620.171,158.69 619.985,162.223 C619.667,168.138 617.014,173.932 612.101,178.208" id="Fill-258" fill="#F7C04B"></path>
            <path d="M611.594,198.858 C608.176,201.91 598.074,196.811 589.032,187.448 C579.989,178.084 575.418,168.016 578.842,164.955 C581.538,162.535 588.42,165.219 595.659,171.078 C597.565,172.634 599.509,174.404 601.395,176.36 C603.6,178.646 605.543,180.972 607.164,183.23 C612.199,190.219 614.177,196.546 611.594,198.858" id="Fill-259" fill="#9997A2"></path>
            <path d="M607.164,183.23 C604.545,186.114 600.092,186.937 596.483,184.973 C592.361,182.729 590.902,177.674 593.236,173.694 C593.858,172.633 594.691,171.746 595.659,171.078 C597.565,172.634 599.509,174.404 601.395,176.36 C603.6,178.646 605.543,180.972 607.164,183.23" id="Fill-260" fill="#FFFFFE"></path>
            <polyline id="Stroke-261" stroke="#11132B" stroke-width="4.594" points="670.414 277.792 699.786 182.983 640.307 143.362 627.824 153.975"></polyline>
            <path d="M646.838,143.926 C646.838,147.817 643.564,150.972 639.525,150.972 C635.486,150.972 632.212,147.817 632.212,143.926 C632.212,140.034 635.486,136.879 639.525,136.879 C643.564,136.879 646.838,140.034 646.838,143.926" id="Fill-262" fill="#11132B"></path>
            <path d="M643.182,143.926 C643.182,145.871 641.544,147.449 639.525,147.449 C637.505,147.449 635.869,145.871 635.869,143.926 C635.869,141.98 637.505,140.402 639.525,140.402 C641.544,140.402 643.182,141.98 643.182,143.926" id="Fill-263" fill="#2F365B"></path>
            <path d="M699.98,292.616 L624.313,292.616 C624.313,284.313 631.044,277.583 639.346,277.583 L684.948,277.583 C693.25,277.583 699.98,284.313 699.98,292.616" id="Fill-264" fill="#2F365B"></path>
            <polygon id="Fill-265" fill="#11132B" points="639.915 277.959 653.566 277.959 653.566 273.825 639.915 273.825"></polygon>
            <path d="M709.439,183.95 C709.439,189.398 704.855,193.815 699.2,193.815 C693.546,193.815 688.962,189.398 688.962,183.95 C688.962,178.501 693.546,174.085 699.2,174.085 C704.855,174.085 709.439,178.501 709.439,183.95" id="Fill-266" fill="#11132B"></path>
            <path d="M704.319,183.95 C704.319,186.674 702.028,188.883 699.2,188.883 C696.373,188.883 694.081,186.674 694.081,183.95 C694.081,181.226 696.373,179.017 699.2,179.017 C702.028,179.017 704.319,181.226 704.319,183.95" id="Fill-267" fill="#2F365B"></path>
            <path d="M764.902,298.212 C753.804,313.325 731.54,315.833 731.54,315.833 C731.54,315.833 727.27,293.839 738.367,278.727 C749.465,263.614 771.729,261.105 771.729,261.105 C771.729,261.105 776,283.1 764.902,298.212" id="Fill-268" fill="#4F783A"></path>
            <path d="M718.301,289.175 C728.474,299.202 727.919,316.261 727.919,316.261 C727.919,316.261 710.869,317.064 700.696,307.038 C690.522,297.011 691.077,279.951 691.077,279.951 C691.077,279.951 708.127,279.148 718.301,289.175" id="Fill-269" fill="#396036"></path>
            <path d="M743.515,281.59 C745.582,300.226 730.897,317.147 730.897,317.147 C730.897,317.147 712.862,303.855 710.795,285.219 C708.728,266.583 723.413,249.662 723.413,249.662 C723.413,249.662 741.448,262.955 743.515,281.59" id="Fill-270" fill="#5EA958"></path>
            <polyline id="Fill-271" fill="#532D3E" points="742.138 368.635 703.52 368.635 690.858 312.29 754.8 312.29 742.138 368.635"></polyline>
            <polyline id="Fill-272" fill="#914D3A" points="756.7 368.635 718.081 368.635 712.383 312.29 769.361 312.29 756.7 368.635"></polyline>
        </g>
    </g>
</svg>